<?xml version="1.0" encoding="UTF-8" standalone="no"?>
<svg xmlns="http://www.w3.org/2000/svg" width="200" height="200" viewBox="0 0 200 200">
  <title>Tibetan Letter A</title>
  <g fill="white" stroke="none">
    <!-- Tibetan Letter A (simplified for cleaner look) -->
    <path d="M100,20 C88,20 76,25 68,35 C60,45 55,60 55,80 C55,100 60,130 85,145 C85,145 70,140 60,120 C50,100 50,70 60,55 C70,40 85,35 100,35 C115,35 130,40 140,55 C150,70 150,100 140,120 C130,140 115,145 115,145 C140,130 145,100 145,80 C145,60 140,45 132,35 C124,25 112,20 100,20 Z" />
    <circle cx="100" cy="180" r="10" />
    <rect x="95" y="80" width="10" height="100" rx="5" ry="5" />
  </g>
</svg>