<?xml version="1.0" encoding="UTF-8" standalone="no"?>
<svg xmlns="http://www.w3.org/2000/svg" width="200" height="200" viewBox="0 0 200 200">
  <title>Tibetan Letter A</title>
  <g fill="white" stroke="white" stroke-width="3">
    <!-- Tibetan Letter A (bold and more visible) -->
    <path d="M100,30 C80,30 65,45 65,70 C65,95 75,120 100,120 C125,120 135,95 135,70 C135,45 120,30 100,30 Z M100,45 C110,45 120,55 120,70 C120,85 115,105 100,105 C85,105 80,85 80,70 C80,55 90,45 100,45 Z" />
    <circle cx="100" cy="160" r="12" />
    <rect x="95" y="80" width="10" height="80" rx="5" ry="5" />
  </g>
</svg>