<?xml version="1.0" encoding="UTF-8" standalone="no"?>
<svg xmlns="http://www.w3.org/2000/svg" width="400" height="400" viewBox="0 0 400 400">
  <path fill="#FFFFFF" d="M200,20 C304.8,20 390,105.2 390,210 C390,314.8 304.8,400 200,400 C95.2,400 10,314.8 10,210 C10,105.2 95.2,20 200,20 Z M225,90 L100,90 C98,90 96,91 95,93 C94,95 94,97 96,99 L130,125 L130,260 C130,280 145,300 175,300 C195,300 210,290 210,270 C210,250 195,235 170,235 C165,235 160,236 155,238 L155,180 L180,215 L300,110 C302,108 302,106 301,104 C300,102 298,101 296,101 L270,101 L225,135 L225,90 Z" />
</svg>